<mxfile host="app.diagrams.net" modified="2023-08-31T10:05:48.939Z" agent="Mozilla/5.0 (Windows NT 10.0; Win64; x64) AppleWebKit/537.36 (KHTML, like Gecko) Chrome/116.0.0.0 Safari/537.36" etag="zRUjURV_FTjImjEDLeJO" version="21.7.1" type="github">
  <diagram name="Page-1" id="JMQUSKUVvHiRDTARqqF8">
    <mxGraphModel dx="1793" dy="938" grid="1" gridSize="10" guides="1" tooltips="1" connect="1" arrows="1" fold="1" page="1" pageScale="1" pageWidth="827" pageHeight="1169" math="0" shadow="0">
      <root>
        <mxCell id="0" />
        <mxCell id="1" parent="0" />
        <mxCell id="9fJnhtzyoroA4Uvz92qD-24" style="edgeStyle=orthogonalEdgeStyle;rounded=0;orthogonalLoop=1;jettySize=auto;html=1;endArrow=baseDash;endFill=0;fontSize=13;" edge="1" parent="1" source="9fJnhtzyoroA4Uvz92qD-1">
          <mxGeometry relative="1" as="geometry">
            <mxPoint x="200" y="390" as="targetPoint" />
          </mxGeometry>
        </mxCell>
        <mxCell id="9fJnhtzyoroA4Uvz92qD-57" value="1,1" style="edgeLabel;html=1;align=center;verticalAlign=middle;resizable=0;points=[];" vertex="1" connectable="0" parent="9fJnhtzyoroA4Uvz92qD-24">
          <mxGeometry x="-0.0238" relative="1" as="geometry">
            <mxPoint x="-1" y="-1" as="offset" />
          </mxGeometry>
        </mxCell>
        <mxCell id="9fJnhtzyoroA4Uvz92qD-27" style="edgeStyle=orthogonalEdgeStyle;rounded=0;orthogonalLoop=1;jettySize=auto;html=1;exitX=0.5;exitY=1;exitDx=0;exitDy=0;entryX=0.5;entryY=0;entryDx=0;entryDy=0;endArrow=none;endFill=0;fontSize=13;" edge="1" parent="1" source="9fJnhtzyoroA4Uvz92qD-1" target="9fJnhtzyoroA4Uvz92qD-13">
          <mxGeometry relative="1" as="geometry" />
        </mxCell>
        <mxCell id="9fJnhtzyoroA4Uvz92qD-60" value="1,n" style="edgeLabel;html=1;align=center;verticalAlign=middle;resizable=0;points=[];" vertex="1" connectable="0" parent="9fJnhtzyoroA4Uvz92qD-27">
          <mxGeometry x="0.0043" relative="1" as="geometry">
            <mxPoint as="offset" />
          </mxGeometry>
        </mxCell>
        <mxCell id="9fJnhtzyoroA4Uvz92qD-1" value="Recette" style="swimlane;whiteSpace=wrap;html=1;fontSize=13;" vertex="1" parent="1">
          <mxGeometry x="100" y="450" width="200" height="200" as="geometry" />
        </mxCell>
        <mxCell id="9fJnhtzyoroA4Uvz92qD-41" value="id" style="text;html=1;align=left;verticalAlign=middle;resizable=0;points=[];autosize=1;strokeColor=none;fillColor=none;fontSize=13;fontFamily=Helvetica;fontColor=default;" vertex="1" parent="9fJnhtzyoroA4Uvz92qD-1">
          <mxGeometry x="20" y="30" width="30" height="30" as="geometry" />
        </mxCell>
        <mxCell id="9fJnhtzyoroA4Uvz92qD-45" value="titre" style="text;html=1;align=left;verticalAlign=middle;resizable=0;points=[];autosize=1;strokeColor=none;fillColor=none;fontSize=13;fontFamily=Helvetica;fontColor=default;" vertex="1" parent="9fJnhtzyoroA4Uvz92qD-1">
          <mxGeometry x="20" y="60" width="50" height="30" as="geometry" />
        </mxCell>
        <mxCell id="9fJnhtzyoroA4Uvz92qD-48" value="contenu" style="text;html=1;align=left;verticalAlign=middle;resizable=0;points=[];autosize=1;strokeColor=none;fillColor=none;fontSize=13;fontFamily=Helvetica;fontColor=default;" vertex="1" parent="9fJnhtzyoroA4Uvz92qD-1">
          <mxGeometry x="20" y="119" width="70" height="30" as="geometry" />
        </mxCell>
        <mxCell id="9fJnhtzyoroA4Uvz92qD-47" value="date de création" style="text;html=1;align=left;verticalAlign=middle;resizable=0;points=[];autosize=1;strokeColor=none;fillColor=none;fontSize=13;fontFamily=Helvetica;fontColor=default;" vertex="1" parent="9fJnhtzyoroA4Uvz92qD-1">
          <mxGeometry x="20" y="149" width="120" height="30" as="geometry" />
        </mxCell>
        <mxCell id="9fJnhtzyoroA4Uvz92qD-46" value="slug" style="text;html=1;align=left;verticalAlign=middle;resizable=0;points=[];autosize=1;strokeColor=none;fillColor=none;fontSize=13;fontFamily=Helvetica;fontColor=default;" vertex="1" parent="9fJnhtzyoroA4Uvz92qD-1">
          <mxGeometry x="20" y="90" width="50" height="30" as="geometry" />
        </mxCell>
        <mxCell id="9fJnhtzyoroA4Uvz92qD-2" value="Catégorie" style="swimlane;whiteSpace=wrap;html=1;fontSize=13;" vertex="1" parent="1">
          <mxGeometry x="610" y="450" width="200" height="200" as="geometry" />
        </mxCell>
        <mxCell id="9fJnhtzyoroA4Uvz92qD-53" value="id" style="text;html=1;align=left;verticalAlign=middle;resizable=0;points=[];autosize=1;strokeColor=none;fillColor=none;fontSize=13;fontFamily=Helvetica;fontColor=default;" vertex="1" parent="9fJnhtzyoroA4Uvz92qD-2">
          <mxGeometry x="20" y="30" width="30" height="30" as="geometry" />
        </mxCell>
        <mxCell id="9fJnhtzyoroA4Uvz92qD-54" value="titre" style="text;html=1;align=left;verticalAlign=middle;resizable=0;points=[];autosize=1;strokeColor=none;fillColor=none;fontSize=13;fontFamily=Helvetica;fontColor=default;" vertex="1" parent="9fJnhtzyoroA4Uvz92qD-2">
          <mxGeometry x="20" y="60" width="50" height="30" as="geometry" />
        </mxCell>
        <mxCell id="9fJnhtzyoroA4Uvz92qD-3" value="Ingrédient" style="swimlane;whiteSpace=wrap;html=1;fontSize=13;" vertex="1" parent="1">
          <mxGeometry x="100" y="878" width="200" height="200" as="geometry" />
        </mxCell>
        <mxCell id="9fJnhtzyoroA4Uvz92qD-51" value="nom" style="text;html=1;align=left;verticalAlign=middle;resizable=0;points=[];autosize=1;strokeColor=none;fillColor=none;fontSize=13;fontFamily=Helvetica;fontColor=default;" vertex="1" parent="9fJnhtzyoroA4Uvz92qD-3">
          <mxGeometry x="20" y="72" width="50" height="30" as="geometry" />
        </mxCell>
        <mxCell id="9fJnhtzyoroA4Uvz92qD-52" value="id" style="text;html=1;align=left;verticalAlign=middle;resizable=0;points=[];autosize=1;strokeColor=none;fillColor=none;fontSize=13;fontFamily=Helvetica;fontColor=default;" vertex="1" parent="9fJnhtzyoroA4Uvz92qD-3">
          <mxGeometry x="20" y="42" width="30" height="30" as="geometry" />
        </mxCell>
        <mxCell id="9fJnhtzyoroA4Uvz92qD-4" value="Utilisateur" style="swimlane;whiteSpace=wrap;html=1;fontSize=13;" vertex="1" parent="1">
          <mxGeometry x="100" y="20" width="200" height="200" as="geometry" />
        </mxCell>
        <mxCell id="9fJnhtzyoroA4Uvz92qD-36" value="nom" style="text;html=1;align=left;verticalAlign=middle;resizable=0;points=[];autosize=1;strokeColor=none;fillColor=none;fontSize=13;fontFamily=Helvetica;fontColor=default;" vertex="1" parent="9fJnhtzyoroA4Uvz92qD-4">
          <mxGeometry x="20" y="58" width="50" height="30" as="geometry" />
        </mxCell>
        <mxCell id="9fJnhtzyoroA4Uvz92qD-30" value="id" style="text;html=1;align=left;verticalAlign=middle;resizable=0;points=[];autosize=1;strokeColor=none;fillColor=none;fontSize=13;fontFamily=Helvetica;fontColor=default;" vertex="1" parent="9fJnhtzyoroA4Uvz92qD-4">
          <mxGeometry x="20" y="28" width="30" height="30" as="geometry" />
        </mxCell>
        <mxCell id="9fJnhtzyoroA4Uvz92qD-39" value="email" style="text;html=1;align=left;verticalAlign=middle;resizable=0;points=[];autosize=1;strokeColor=none;fillColor=none;fontSize=13;fontFamily=Helvetica;fontColor=default;" vertex="1" parent="9fJnhtzyoroA4Uvz92qD-4">
          <mxGeometry x="20" y="88" width="50" height="30" as="geometry" />
        </mxCell>
        <mxCell id="9fJnhtzyoroA4Uvz92qD-40" value="mot de passe" style="text;html=1;align=left;verticalAlign=middle;resizable=0;points=[];autosize=1;strokeColor=none;fillColor=none;fontSize=13;fontFamily=Helvetica;fontColor=default;" vertex="1" parent="9fJnhtzyoroA4Uvz92qD-4">
          <mxGeometry x="20" y="118" width="100" height="30" as="geometry" />
        </mxCell>
        <mxCell id="9fJnhtzyoroA4Uvz92qD-26" style="edgeStyle=orthogonalEdgeStyle;rounded=0;orthogonalLoop=1;jettySize=auto;html=1;entryX=0;entryY=0.5;entryDx=0;entryDy=0;endArrow=none;endFill=0;fontSize=13;" edge="1" parent="1" source="9fJnhtzyoroA4Uvz92qD-10" target="9fJnhtzyoroA4Uvz92qD-2">
          <mxGeometry relative="1" as="geometry" />
        </mxCell>
        <mxCell id="9fJnhtzyoroA4Uvz92qD-59" value="0,n" style="edgeLabel;html=1;align=center;verticalAlign=middle;resizable=0;points=[];" vertex="1" connectable="0" parent="9fJnhtzyoroA4Uvz92qD-26">
          <mxGeometry x="-0.0798" y="1" relative="1" as="geometry">
            <mxPoint as="offset" />
          </mxGeometry>
        </mxCell>
        <mxCell id="9fJnhtzyoroA4Uvz92qD-10" value="Appartient" style="swimlane;whiteSpace=wrap;html=1;rounded=1;fontSize=13;" vertex="1" parent="1">
          <mxGeometry x="400" y="500" width="120" height="100" as="geometry" />
        </mxCell>
        <mxCell id="9fJnhtzyoroA4Uvz92qD-28" style="edgeStyle=orthogonalEdgeStyle;shape=connector;rounded=0;orthogonalLoop=1;jettySize=auto;html=1;entryX=0.5;entryY=1;entryDx=0;entryDy=0;labelBackgroundColor=default;strokeColor=default;fontFamily=Helvetica;fontSize=13;fontColor=default;endArrow=none;endFill=0;" edge="1" parent="1" source="9fJnhtzyoroA4Uvz92qD-12" target="9fJnhtzyoroA4Uvz92qD-4">
          <mxGeometry relative="1" as="geometry" />
        </mxCell>
        <mxCell id="9fJnhtzyoroA4Uvz92qD-55" value="0,n" style="edgeLabel;html=1;align=center;verticalAlign=middle;resizable=0;points=[];" vertex="1" connectable="0" parent="9fJnhtzyoroA4Uvz92qD-28">
          <mxGeometry x="-0.0361" y="-3" relative="1" as="geometry">
            <mxPoint x="-3" as="offset" />
          </mxGeometry>
        </mxCell>
        <mxCell id="9fJnhtzyoroA4Uvz92qD-12" value="Créé" style="swimlane;whiteSpace=wrap;html=1;rounded=1;fontSize=13;" vertex="1" parent="1">
          <mxGeometry x="120" y="290" width="160" height="100" as="geometry" />
        </mxCell>
        <mxCell id="9fJnhtzyoroA4Uvz92qD-29" style="edgeStyle=orthogonalEdgeStyle;shape=connector;rounded=0;orthogonalLoop=1;jettySize=auto;html=1;entryX=0.5;entryY=0;entryDx=0;entryDy=0;labelBackgroundColor=default;strokeColor=default;fontFamily=Helvetica;fontSize=13;fontColor=default;endArrow=none;endFill=0;" edge="1" parent="1" source="9fJnhtzyoroA4Uvz92qD-13" target="9fJnhtzyoroA4Uvz92qD-3">
          <mxGeometry relative="1" as="geometry" />
        </mxCell>
        <mxCell id="9fJnhtzyoroA4Uvz92qD-61" value="0,n" style="edgeLabel;html=1;align=center;verticalAlign=middle;resizable=0;points=[];" vertex="1" connectable="0" parent="9fJnhtzyoroA4Uvz92qD-29">
          <mxGeometry x="-0.0686" relative="1" as="geometry">
            <mxPoint as="offset" />
          </mxGeometry>
        </mxCell>
        <mxCell id="9fJnhtzyoroA4Uvz92qD-13" value="Composé de" style="swimlane;whiteSpace=wrap;html=1;rounded=1;fontSize=13;" vertex="1" parent="1">
          <mxGeometry x="140" y="710" width="120" height="100" as="geometry" />
        </mxCell>
        <mxCell id="9fJnhtzyoroA4Uvz92qD-49" value="quantité" style="text;html=1;align=left;verticalAlign=middle;resizable=0;points=[];autosize=1;strokeColor=none;fillColor=none;fontSize=13;fontFamily=Helvetica;fontColor=default;" vertex="1" parent="9fJnhtzyoroA4Uvz92qD-13">
          <mxGeometry x="10" y="30" width="70" height="30" as="geometry" />
        </mxCell>
        <mxCell id="9fJnhtzyoroA4Uvz92qD-50" value="unité" style="text;html=1;align=left;verticalAlign=middle;resizable=0;points=[];autosize=1;strokeColor=none;fillColor=none;fontSize=13;fontFamily=Helvetica;fontColor=default;" vertex="1" parent="9fJnhtzyoroA4Uvz92qD-13">
          <mxGeometry x="10" y="60" width="50" height="30" as="geometry" />
        </mxCell>
        <mxCell id="9fJnhtzyoroA4Uvz92qD-25" value="" style="endArrow=none;html=1;rounded=0;exitX=1;exitY=0.5;exitDx=0;exitDy=0;entryX=0;entryY=0.5;entryDx=0;entryDy=0;fontSize=13;" edge="1" parent="1" source="9fJnhtzyoroA4Uvz92qD-1" target="9fJnhtzyoroA4Uvz92qD-10">
          <mxGeometry width="50" height="50" relative="1" as="geometry">
            <mxPoint x="300" y="430" as="sourcePoint" />
            <mxPoint x="350" y="380" as="targetPoint" />
            <Array as="points" />
          </mxGeometry>
        </mxCell>
        <mxCell id="9fJnhtzyoroA4Uvz92qD-58" value="0,1" style="edgeLabel;html=1;align=center;verticalAlign=middle;resizable=0;points=[];" vertex="1" connectable="0" parent="9fJnhtzyoroA4Uvz92qD-25">
          <mxGeometry x="0.0436" relative="1" as="geometry">
            <mxPoint as="offset" />
          </mxGeometry>
        </mxCell>
        <mxCell id="9fJnhtzyoroA4Uvz92qD-62" value="recipes" style="swimlane;whiteSpace=wrap;html=1;fontSize=13;startSize=23;" vertex="1" parent="1">
          <mxGeometry x="940" y="450" width="200" height="209" as="geometry" />
        </mxCell>
        <mxCell id="9fJnhtzyoroA4Uvz92qD-63" value="id" style="text;html=1;align=left;verticalAlign=middle;resizable=0;points=[];autosize=1;strokeColor=none;fillColor=none;fontSize=13;fontFamily=Helvetica;fontColor=default;" vertex="1" parent="9fJnhtzyoroA4Uvz92qD-62">
          <mxGeometry x="20" y="30" width="30" height="30" as="geometry" />
        </mxCell>
        <mxCell id="9fJnhtzyoroA4Uvz92qD-64" value="title" style="text;html=1;align=left;verticalAlign=middle;resizable=0;points=[];autosize=1;strokeColor=none;fillColor=none;fontSize=13;fontFamily=Helvetica;fontColor=default;" vertex="1" parent="9fJnhtzyoroA4Uvz92qD-62">
          <mxGeometry x="20" y="56" width="40" height="30" as="geometry" />
        </mxCell>
        <mxCell id="9fJnhtzyoroA4Uvz92qD-65" value="content" style="text;html=1;align=left;verticalAlign=middle;resizable=0;points=[];autosize=1;strokeColor=none;fillColor=none;fontSize=13;fontFamily=Helvetica;fontColor=default;" vertex="1" parent="9fJnhtzyoroA4Uvz92qD-62">
          <mxGeometry x="20" y="109" width="70" height="30" as="geometry" />
        </mxCell>
        <mxCell id="9fJnhtzyoroA4Uvz92qD-66" value="date" style="text;html=1;align=left;verticalAlign=middle;resizable=0;points=[];autosize=1;strokeColor=none;fillColor=none;fontSize=13;fontFamily=Helvetica;fontColor=default;" vertex="1" parent="9fJnhtzyoroA4Uvz92qD-62">
          <mxGeometry x="20" y="139" width="50" height="30" as="geometry" />
        </mxCell>
        <mxCell id="9fJnhtzyoroA4Uvz92qD-67" value="slug" style="text;html=1;align=left;verticalAlign=middle;resizable=0;points=[];autosize=1;strokeColor=none;fillColor=none;fontSize=13;fontFamily=Helvetica;fontColor=default;" vertex="1" parent="9fJnhtzyoroA4Uvz92qD-62">
          <mxGeometry x="20" y="80" width="50" height="30" as="geometry" />
        </mxCell>
        <mxCell id="9fJnhtzyoroA4Uvz92qD-79" value="user_id" style="text;html=1;align=left;verticalAlign=middle;resizable=0;points=[];autosize=1;strokeColor=none;fillColor=none;fontSize=13;fontFamily=Helvetica;fontColor=default;" vertex="1" parent="9fJnhtzyoroA4Uvz92qD-62">
          <mxGeometry x="20" y="169" width="70" height="30" as="geometry" />
        </mxCell>
        <mxCell id="9fJnhtzyoroA4Uvz92qD-68" value="ingredients" style="swimlane;whiteSpace=wrap;html=1;fontSize=13;" vertex="1" parent="1">
          <mxGeometry x="940" y="878" width="200" height="200" as="geometry" />
        </mxCell>
        <mxCell id="9fJnhtzyoroA4Uvz92qD-69" value="name" style="text;html=1;align=left;verticalAlign=middle;resizable=0;points=[];autosize=1;strokeColor=none;fillColor=none;fontSize=13;fontFamily=Helvetica;fontColor=default;" vertex="1" parent="9fJnhtzyoroA4Uvz92qD-68">
          <mxGeometry x="20" y="72" width="60" height="30" as="geometry" />
        </mxCell>
        <mxCell id="9fJnhtzyoroA4Uvz92qD-70" value="id" style="text;html=1;align=left;verticalAlign=middle;resizable=0;points=[];autosize=1;strokeColor=none;fillColor=none;fontSize=13;fontFamily=Helvetica;fontColor=default;" vertex="1" parent="9fJnhtzyoroA4Uvz92qD-68">
          <mxGeometry x="20" y="42" width="30" height="30" as="geometry" />
        </mxCell>
        <mxCell id="9fJnhtzyoroA4Uvz92qD-71" value="users" style="swimlane;whiteSpace=wrap;html=1;fontSize=13;" vertex="1" parent="1">
          <mxGeometry x="940" y="20" width="200" height="200" as="geometry" />
        </mxCell>
        <mxCell id="9fJnhtzyoroA4Uvz92qD-72" value="username" style="text;html=1;align=left;verticalAlign=middle;resizable=0;points=[];autosize=1;strokeColor=none;fillColor=none;fontSize=13;fontFamily=Helvetica;fontColor=default;" vertex="1" parent="9fJnhtzyoroA4Uvz92qD-71">
          <mxGeometry x="20" y="58" width="80" height="30" as="geometry" />
        </mxCell>
        <mxCell id="9fJnhtzyoroA4Uvz92qD-73" value="id" style="text;html=1;align=left;verticalAlign=middle;resizable=0;points=[];autosize=1;strokeColor=none;fillColor=none;fontSize=13;fontFamily=Helvetica;fontColor=default;" vertex="1" parent="9fJnhtzyoroA4Uvz92qD-71">
          <mxGeometry x="20" y="28" width="30" height="30" as="geometry" />
        </mxCell>
        <mxCell id="9fJnhtzyoroA4Uvz92qD-74" value="email" style="text;html=1;align=left;verticalAlign=middle;resizable=0;points=[];autosize=1;strokeColor=none;fillColor=none;fontSize=13;fontFamily=Helvetica;fontColor=default;" vertex="1" parent="9fJnhtzyoroA4Uvz92qD-71">
          <mxGeometry x="20" y="88" width="50" height="30" as="geometry" />
        </mxCell>
        <mxCell id="9fJnhtzyoroA4Uvz92qD-75" value="password" style="text;html=1;align=left;verticalAlign=middle;resizable=0;points=[];autosize=1;strokeColor=none;fillColor=none;fontSize=13;fontFamily=Helvetica;fontColor=default;" vertex="1" parent="9fJnhtzyoroA4Uvz92qD-71">
          <mxGeometry x="20" y="118" width="80" height="30" as="geometry" />
        </mxCell>
        <mxCell id="9fJnhtzyoroA4Uvz92qD-76" value="categories" style="swimlane;whiteSpace=wrap;html=1;fontSize=13;" vertex="1" parent="1">
          <mxGeometry x="1400" y="450" width="200" height="210" as="geometry" />
        </mxCell>
        <mxCell id="9fJnhtzyoroA4Uvz92qD-77" value="id" style="text;html=1;align=left;verticalAlign=middle;resizable=0;points=[];autosize=1;strokeColor=none;fillColor=none;fontSize=13;fontFamily=Helvetica;fontColor=default;" vertex="1" parent="9fJnhtzyoroA4Uvz92qD-76">
          <mxGeometry x="20" y="30" width="30" height="30" as="geometry" />
        </mxCell>
        <mxCell id="9fJnhtzyoroA4Uvz92qD-78" value="title" style="text;html=1;align=left;verticalAlign=middle;resizable=0;points=[];autosize=1;strokeColor=none;fillColor=none;fontSize=13;fontFamily=Helvetica;fontColor=default;" vertex="1" parent="9fJnhtzyoroA4Uvz92qD-76">
          <mxGeometry x="20" y="60" width="40" height="30" as="geometry" />
        </mxCell>
        <mxCell id="9fJnhtzyoroA4Uvz92qD-81" style="edgeStyle=orthogonalEdgeStyle;shape=connector;rounded=0;orthogonalLoop=1;jettySize=auto;html=1;entryX=-0.019;entryY=0.521;entryDx=0;entryDy=0;entryPerimeter=0;labelBackgroundColor=default;strokeColor=default;fontFamily=Helvetica;fontSize=11;fontColor=default;endArrow=none;endFill=0;" edge="1" parent="1" source="9fJnhtzyoroA4Uvz92qD-79" target="9fJnhtzyoroA4Uvz92qD-73">
          <mxGeometry relative="1" as="geometry">
            <Array as="points">
              <mxPoint x="910" y="634" />
              <mxPoint x="910" y="64" />
            </Array>
          </mxGeometry>
        </mxCell>
        <mxCell id="9fJnhtzyoroA4Uvz92qD-83" value="categories_recipes" style="swimlane;whiteSpace=wrap;html=1;fontSize=13;startSize=23;" vertex="1" parent="1">
          <mxGeometry x="1170" y="450" width="200" height="100" as="geometry" />
        </mxCell>
        <mxCell id="9fJnhtzyoroA4Uvz92qD-84" value="recipe_id" style="text;html=1;align=left;verticalAlign=middle;resizable=0;points=[];autosize=1;strokeColor=none;fillColor=none;fontSize=13;fontFamily=Helvetica;fontColor=default;" vertex="1" parent="9fJnhtzyoroA4Uvz92qD-83">
          <mxGeometry x="20" y="30" width="80" height="30" as="geometry" />
        </mxCell>
        <mxCell id="9fJnhtzyoroA4Uvz92qD-85" value="category_id" style="text;html=1;align=left;verticalAlign=middle;resizable=0;points=[];autosize=1;strokeColor=none;fillColor=none;fontSize=13;fontFamily=Helvetica;fontColor=default;" vertex="1" parent="9fJnhtzyoroA4Uvz92qD-83">
          <mxGeometry x="20" y="56" width="90" height="30" as="geometry" />
        </mxCell>
        <mxCell id="9fJnhtzyoroA4Uvz92qD-90" style="edgeStyle=orthogonalEdgeStyle;shape=connector;rounded=0;orthogonalLoop=1;jettySize=auto;html=1;entryX=-0.053;entryY=0.472;entryDx=0;entryDy=0;entryPerimeter=0;labelBackgroundColor=default;strokeColor=default;fontFamily=Helvetica;fontSize=11;fontColor=default;endArrow=none;endFill=0;" edge="1" parent="1" source="9fJnhtzyoroA4Uvz92qD-63" target="9fJnhtzyoroA4Uvz92qD-84">
          <mxGeometry relative="1" as="geometry" />
        </mxCell>
        <mxCell id="9fJnhtzyoroA4Uvz92qD-91" style="edgeStyle=orthogonalEdgeStyle;shape=connector;rounded=0;orthogonalLoop=1;jettySize=auto;html=1;entryX=0.016;entryY=0.612;entryDx=0;entryDy=0;entryPerimeter=0;labelBackgroundColor=default;strokeColor=default;fontFamily=Helvetica;fontSize=11;fontColor=default;endArrow=none;endFill=0;" edge="1" parent="1" source="9fJnhtzyoroA4Uvz92qD-85" target="9fJnhtzyoroA4Uvz92qD-77">
          <mxGeometry relative="1" as="geometry" />
        </mxCell>
        <mxCell id="9fJnhtzyoroA4Uvz92qD-95" value="ingredients_recipes" style="swimlane;whiteSpace=wrap;html=1;fontSize=13;startSize=23;" vertex="1" parent="1">
          <mxGeometry x="940" y="690" width="200" height="150" as="geometry" />
        </mxCell>
        <mxCell id="9fJnhtzyoroA4Uvz92qD-96" value="recipe_id" style="text;html=1;align=left;verticalAlign=middle;resizable=0;points=[];autosize=1;strokeColor=none;fillColor=none;fontSize=13;fontFamily=Helvetica;fontColor=default;" vertex="1" parent="9fJnhtzyoroA4Uvz92qD-95">
          <mxGeometry x="20" y="30" width="80" height="30" as="geometry" />
        </mxCell>
        <mxCell id="9fJnhtzyoroA4Uvz92qD-97" value="ingredient_id" style="text;html=1;align=left;verticalAlign=middle;resizable=0;points=[];autosize=1;strokeColor=none;fillColor=none;fontSize=13;fontFamily=Helvetica;fontColor=default;" vertex="1" parent="9fJnhtzyoroA4Uvz92qD-95">
          <mxGeometry x="20" y="56" width="100" height="30" as="geometry" />
        </mxCell>
        <mxCell id="9fJnhtzyoroA4Uvz92qD-100" value="quantity" style="text;html=1;align=left;verticalAlign=middle;resizable=0;points=[];autosize=1;strokeColor=none;fillColor=none;fontSize=13;fontFamily=Helvetica;fontColor=default;" vertex="1" parent="9fJnhtzyoroA4Uvz92qD-95">
          <mxGeometry x="20" y="80" width="70" height="30" as="geometry" />
        </mxCell>
        <mxCell id="9fJnhtzyoroA4Uvz92qD-101" value="unit" style="text;html=1;align=left;verticalAlign=middle;resizable=0;points=[];autosize=1;strokeColor=none;fillColor=none;fontSize=13;fontFamily=Helvetica;fontColor=default;" vertex="1" parent="9fJnhtzyoroA4Uvz92qD-95">
          <mxGeometry x="20" y="110" width="40" height="30" as="geometry" />
        </mxCell>
        <mxCell id="9fJnhtzyoroA4Uvz92qD-98" style="edgeStyle=orthogonalEdgeStyle;shape=connector;rounded=0;orthogonalLoop=1;jettySize=auto;html=1;entryX=-0.019;entryY=0.472;entryDx=0;entryDy=0;entryPerimeter=0;labelBackgroundColor=default;strokeColor=default;fontFamily=Helvetica;fontSize=11;fontColor=default;endArrow=none;endFill=0;exitX=-0.053;exitY=0.578;exitDx=0;exitDy=0;exitPerimeter=0;" edge="1" parent="1" source="9fJnhtzyoroA4Uvz92qD-96" target="9fJnhtzyoroA4Uvz92qD-63">
          <mxGeometry relative="1" as="geometry">
            <Array as="points">
              <mxPoint x="880" y="737" />
              <mxPoint x="880" y="494" />
            </Array>
          </mxGeometry>
        </mxCell>
        <mxCell id="9fJnhtzyoroA4Uvz92qD-99" style="edgeStyle=orthogonalEdgeStyle;shape=connector;rounded=0;orthogonalLoop=1;jettySize=auto;html=1;labelBackgroundColor=default;strokeColor=default;fontFamily=Helvetica;fontSize=11;fontColor=default;endArrow=none;endFill=0;entryX=-0.089;entryY=0.437;entryDx=0;entryDy=0;entryPerimeter=0;exitX=-0.013;exitY=0.452;exitDx=0;exitDy=0;exitPerimeter=0;" edge="1" parent="1" source="9fJnhtzyoroA4Uvz92qD-97" target="9fJnhtzyoroA4Uvz92qD-70">
          <mxGeometry relative="1" as="geometry">
            <mxPoint x="940" y="934" as="targetPoint" />
            <Array as="points">
              <mxPoint x="880" y="760" />
              <mxPoint x="880" y="933" />
            </Array>
          </mxGeometry>
        </mxCell>
        <mxCell id="9fJnhtzyoroA4Uvz92qD-102" value="MCD" style="text;html=1;align=center;verticalAlign=middle;resizable=0;points=[];autosize=1;strokeColor=none;fillColor=none;fontSize=25;fontFamily=Helvetica;fontColor=default;" vertex="1" parent="1">
          <mxGeometry x="690" y="20" width="80" height="40" as="geometry" />
        </mxCell>
        <mxCell id="9fJnhtzyoroA4Uvz92qD-103" value="MLD" style="text;html=1;align=center;verticalAlign=middle;resizable=0;points=[];autosize=1;strokeColor=none;fillColor=none;fontSize=25;fontFamily=Helvetica;fontColor=default;" vertex="1" parent="1">
          <mxGeometry x="1520" y="20" width="80" height="40" as="geometry" />
        </mxCell>
      </root>
    </mxGraphModel>
  </diagram>
</mxfile>
